<mxfile host="app.diagrams.net" agent="Mozilla/5.0 (Windows NT 10.0; Win64; x64) AppleWebKit/537.36 (KHTML, like Gecko) Chrome/133.0.0.0 Safari/537.36" version="26.0.14">
  <diagram name="第 1 页" id="UjbYbW4v0s75clD0fJ6p">
    <mxGraphModel dx="1434" dy="780" grid="1" gridSize="10" guides="1" tooltips="1" connect="1" arrows="1" fold="1" page="0" pageScale="1" pageWidth="827" pageHeight="1169" background="#ffffff" math="0" shadow="0">
      <root>
        <mxCell id="0" />
        <mxCell id="1" parent="0" />
        <mxCell id="8j9NeIH8w00tza-Nv7Ke-11" value="" style="edgeStyle=orthogonalEdgeStyle;rounded=0;orthogonalLoop=1;jettySize=auto;html=1;" edge="1" parent="1" source="8j9NeIH8w00tza-Nv7Ke-1" target="8j9NeIH8w00tza-Nv7Ke-2">
          <mxGeometry relative="1" as="geometry" />
        </mxCell>
        <mxCell id="8j9NeIH8w00tza-Nv7Ke-1" value="Start" style="strokeWidth=2;html=1;shape=mxgraph.flowchart.start_1;whiteSpace=wrap;fillColor=#dae8fc;strokeColor=#6c8ebf;" vertex="1" parent="1">
          <mxGeometry x="330" y="90" width="100" height="60" as="geometry" />
        </mxCell>
        <mxCell id="8j9NeIH8w00tza-Nv7Ke-8" value="" style="edgeStyle=orthogonalEdgeStyle;rounded=0;orthogonalLoop=1;jettySize=auto;html=1;" edge="1" parent="1" source="8j9NeIH8w00tza-Nv7Ke-2" target="8j9NeIH8w00tza-Nv7Ke-7">
          <mxGeometry relative="1" as="geometry" />
        </mxCell>
        <mxCell id="8j9NeIH8w00tza-Nv7Ke-2" value="List exercises in a form" style="rounded=1;whiteSpace=wrap;html=1;absoluteArcSize=1;arcSize=14;strokeWidth=2;fillColor=#f8cecc;strokeColor=#b85450;" vertex="1" parent="1">
          <mxGeometry x="320" y="210" width="120" height="60" as="geometry" />
        </mxCell>
        <mxCell id="8j9NeIH8w00tza-Nv7Ke-10" value="" style="edgeStyle=orthogonalEdgeStyle;rounded=0;orthogonalLoop=1;jettySize=auto;html=1;" edge="1" parent="1" source="8j9NeIH8w00tza-Nv7Ke-7" target="8j9NeIH8w00tza-Nv7Ke-9">
          <mxGeometry relative="1" as="geometry" />
        </mxCell>
        <mxCell id="8j9NeIH8w00tza-Nv7Ke-7" value="Has the exercise been added?" style="strokeWidth=2;html=1;shape=mxgraph.flowchart.decision;whiteSpace=wrap;fillColor=#e1d5e7;strokeColor=#9673a6;" vertex="1" parent="1">
          <mxGeometry x="320" y="320" width="120" height="80" as="geometry" />
        </mxCell>
        <mxCell id="8j9NeIH8w00tza-Nv7Ke-18" value="" style="edgeStyle=orthogonalEdgeStyle;rounded=0;orthogonalLoop=1;jettySize=auto;html=1;" edge="1" parent="1" source="8j9NeIH8w00tza-Nv7Ke-9" target="8j9NeIH8w00tza-Nv7Ke-12">
          <mxGeometry relative="1" as="geometry" />
        </mxCell>
        <mxCell id="8j9NeIH8w00tza-Nv7Ke-9" value="List on the top of the list as &quot;Recent&quot;" style="rounded=1;whiteSpace=wrap;html=1;absoluteArcSize=1;arcSize=14;strokeWidth=2;fillColor=#f8cecc;strokeColor=#b85450;" vertex="1" parent="1">
          <mxGeometry x="320" y="450" width="120" height="60" as="geometry" />
        </mxCell>
        <mxCell id="8j9NeIH8w00tza-Nv7Ke-19" value="" style="edgeStyle=orthogonalEdgeStyle;rounded=0;orthogonalLoop=1;jettySize=auto;html=1;" edge="1" parent="1" source="8j9NeIH8w00tza-Nv7Ke-12" target="8j9NeIH8w00tza-Nv7Ke-13">
          <mxGeometry relative="1" as="geometry" />
        </mxCell>
        <mxCell id="8j9NeIH8w00tza-Nv7Ke-12" value="Select / unselect exercises" style="shape=parallelogram;html=1;strokeWidth=2;perimeter=parallelogramPerimeter;whiteSpace=wrap;rounded=1;arcSize=12;size=0.23;fillColor=#d5e8d4;strokeColor=#82b366;" vertex="1" parent="1">
          <mxGeometry x="320" y="570" width="120" height="60" as="geometry" />
        </mxCell>
        <mxCell id="8j9NeIH8w00tza-Nv7Ke-20" value="" style="edgeStyle=orthogonalEdgeStyle;rounded=0;orthogonalLoop=1;jettySize=auto;html=1;" edge="1" parent="1" source="8j9NeIH8w00tza-Nv7Ke-13" target="8j9NeIH8w00tza-Nv7Ke-14">
          <mxGeometry relative="1" as="geometry" />
        </mxCell>
        <mxCell id="8j9NeIH8w00tza-Nv7Ke-13" value="Count how many exercises are selected" style="rounded=1;whiteSpace=wrap;html=1;absoluteArcSize=1;arcSize=14;strokeWidth=2;fillColor=#f8cecc;strokeColor=#b85450;" vertex="1" parent="1">
          <mxGeometry x="320" y="690" width="120" height="60" as="geometry" />
        </mxCell>
        <mxCell id="8j9NeIH8w00tza-Nv7Ke-21" value="" style="edgeStyle=orthogonalEdgeStyle;rounded=0;orthogonalLoop=1;jettySize=auto;html=1;" edge="1" parent="1" source="8j9NeIH8w00tza-Nv7Ke-14" target="8j9NeIH8w00tza-Nv7Ke-15">
          <mxGeometry relative="1" as="geometry" />
        </mxCell>
        <mxCell id="8j9NeIH8w00tza-Nv7Ke-14" value="Add selected exercises to the activity of the exercise section" style="rounded=1;whiteSpace=wrap;html=1;absoluteArcSize=1;arcSize=14;strokeWidth=2;fillColor=#f8cecc;strokeColor=#b85450;" vertex="1" parent="1">
          <mxGeometry x="320" y="810" width="120" height="60" as="geometry" />
        </mxCell>
        <mxCell id="8j9NeIH8w00tza-Nv7Ke-22" value="" style="edgeStyle=orthogonalEdgeStyle;rounded=0;orthogonalLoop=1;jettySize=auto;html=1;" edge="1" parent="1" source="8j9NeIH8w00tza-Nv7Ke-15" target="8j9NeIH8w00tza-Nv7Ke-16">
          <mxGeometry relative="1" as="geometry" />
        </mxCell>
        <mxCell id="8j9NeIH8w00tza-Nv7Ke-15" value="Save" style="rounded=1;whiteSpace=wrap;html=1;absoluteArcSize=1;arcSize=14;strokeWidth=2;fillColor=#f8cecc;strokeColor=#b85450;" vertex="1" parent="1">
          <mxGeometry x="320" y="930" width="120" height="60" as="geometry" />
        </mxCell>
        <mxCell id="8j9NeIH8w00tza-Nv7Ke-16" value="End" style="strokeWidth=2;html=1;shape=mxgraph.flowchart.start_1;whiteSpace=wrap;fillColor=#dae8fc;strokeColor=#6c8ebf;" vertex="1" parent="1">
          <mxGeometry x="330" y="1050" width="100" height="60" as="geometry" />
        </mxCell>
      </root>
    </mxGraphModel>
  </diagram>
</mxfile>
